<svg width="40" height="38" viewBox="0 0 40 38" fill="none" xmlns="http://www.w3.org/2000/svg">
<path d="M17.5 19C17.5 22.3748 16.7076 25.3565 15.504 27.4428C14.2774 29.5689 12.8077 30.5 11.5 30.5C10.1923 30.5 8.72255 29.5689 7.49598 27.4428C6.29235 25.3565 5.5 22.3748 5.5 19C5.5 15.6252 6.29235 12.6435 7.49598 10.5572C8.72255 8.43113 10.1923 7.5 11.5 7.5C12.8077 7.5 14.2774 8.43113 15.504 10.5572C16.7076 12.6435 17.5 15.6252 17.5 19Z" stroke="black" stroke-width="3"/>
<path d="M12.8586 20.0038C12.8586 21.479 12.5583 22.8999 12.0176 23.983C11.477 25.066 10.7357 25.7315 9.9418 25.8466C9.1479 25.9617 8.35977 25.518 7.73472 24.604C7.10966 23.6899 6.69367 22.3729 6.56978 20.9156C6.44588 19.4584 6.62319 17.9682 7.06632 16.7425C7.50944 15.5168 8.18579 14.6458 8.96035 14.3032C9.73491 13.9607 10.5507 14.1719 11.2449 14.8946C11.9391 15.6174 12.4607 16.7985 12.7054 18.2023L9.69493 20.0038H12.8586Z" fill="black"/>
<path d="M34.5 19C34.5 22.3748 33.7076 25.3565 32.504 27.4428C31.2774 29.5689 29.8077 30.5 28.5 30.5C27.1923 30.5 25.7226 29.5689 24.496 27.4428C23.2924 25.3565 22.5 22.3748 22.5 19C22.5 15.6252 23.2924 12.6435 24.496 10.5572C25.7226 8.43113 27.1923 7.5 28.5 7.5C29.8077 7.5 31.2774 8.43113 32.504 10.5572C33.7076 12.6435 34.5 15.6252 34.5 19Z" stroke="black" stroke-width="3"/>
<path d="M29.8586 20.0038C29.8586 21.479 29.5583 22.8999 29.0176 23.983C28.477 25.066 27.7357 25.7315 26.9418 25.8466C26.1479 25.9617 25.3598 25.518 24.7347 24.604C24.1097 23.6899 23.6937 22.3729 23.5698 20.9156C23.4459 19.4584 23.6232 17.9682 24.0663 16.7425C24.5094 15.5168 25.1858 14.6458 25.9604 14.3032C26.7349 13.9607 27.5507 14.1719 28.2449 14.8946C28.9391 15.6174 29.4607 16.7985 29.7054 18.2023L26.6949 20.0038H29.8586Z" fill="black"/>
</svg>

